<svg width="128" height="128" xmlns="http://www.w3.org/2000/svg">

 <g>
  <title>Layer 1</title>
  <path fill="white" stroke="#ffffff" id="svg_3" d="m63.80779,16.67547l-49.93635,44.21828l5.26018,5.93448l44.88189,-39.74263l44.87083,39.74263l5.25023,-5.93448l-49.92529,-44.21828l-0.19407,0.22474l-0.20428,-0.22474l-0.00313,0z"/>
  <path fill="white" stroke="#ffffff" id="svg_4" d="m28.8011,23.01659l12.65939,0l-0.11031,7.49801l-12.54879,11.3366l0,-18.83461l-0.00029,0z"/>
  <rect stroke="null" id="svg_5" stroke-width="59" stroke-linejoin="null" stroke-linecap="null" stroke-dasharray="null" fill="none" height="13.50002" width="91.5" y="-128.00001" x="5.375"/>
  <path fill="white" stroke="#ffffff" id="svg_2" d="m99.20011,65.89751zl-35.18918,-31.16368l-35.20946,31.17732l0,44.55008c0,1.15055 0.92971,2.07351 2.08029,2.07351l22.00518,0l0,-19.53287c0,-1.15055 0.92297,-2.08026 2.07355,-2.08026l18.08105,0c1.15055,0 2.07351,0.92971 2.07351,2.08026l0,19.53287l22.01181,0c1.15055,0 2.07355,-0.92297 2.07355,-2.07351l0,-44.56483l-0.00029,0.00111zm-70.39754,0.01349z"/>
 </g>
</svg>